<?xml version="1.0" encoding="UTF-8" standalone="no"?>
<svg width="5px" height="14px" viewBox="0 0 5 14" version="1.1" xmlns="http://www.w3.org/2000/svg" xmlns:xlink="http://www.w3.org/1999/xlink">
    <!-- Generator: Sketch 45.2 (43514) - http://www.bohemiancoding.com/sketch -->
    <title>icons/ic-info</title>
    <desc>Created with Sketch.</desc>
    <defs></defs>
    <g id="Network-Topology-States" stroke="none" stroke-width="1" fill="none" fill-rule="evenodd">
        <g id="Network_Topology_Virtual_Full-Example" transform="translate(-901.000000, -347.000000)" fill="#FFFFFF">
            <g id="content" transform="translate(200.000000, 0.000000)">
                <g id="area-content" transform="translate(30.000000, 80.000000)">
                    <g id="actions" transform="translate(637.000000, 241.000000)">
                        <g transform="translate(0.000000, 21.000000)" id="icons/ic-info">
                            <g transform="translate(34.000000, 4.000000)">
                                <path d="M3.1557,3.71930769 C3.4917,3.71930769 3.8187,3.58430769 4.0557,3.34546154 C4.2927,3.10661538 4.4297,2.77546154 4.4297,2.43738462 C4.4297,2.09815385 4.2927,1.76815385 4.0557,1.53161538 C3.8177,1.29161538 3.4887,1.15315385 3.1557,1.15315385 C2.8197,1.15315385 2.4907,1.29161538 2.2537,1.53161538 C2.0167,1.76815385 1.8817,2.09815385 1.8817,2.43738462 C1.8817,2.77546154 2.0167,3.10661538 2.2537,3.34546154 C2.4907,3.58430769 2.8197,3.71930769 3.1557,3.71930769 M3.7477,12.1839231 L2.8087,12.5946923 L4.0307,6.35238462 C4.0977,6.00738462 3.9607,5.65661538 3.6777,5.45123077 C3.3957,5.24584615 3.0207,5.22507692 2.7177,5.39584615 L0.4547,6.67892308 C0.0247,6.92238462 -0.1263,7.47046154 0.1147,7.90315385 C0.3577,8.33584615 0.9007,8.48815385 1.3297,8.24469231 L1.9057,7.91815385 L0.7297,13.9296923 C0.6657,14.2573846 0.7877,14.5943077 1.0457,14.802 C1.2077,14.9335385 1.4057,15.0004615 1.6047,15.0004615 C1.7257,15.0004615 1.8467,14.9762308 1.9607,14.9266154 L4.4607,13.8304615 C4.9117,13.632 5.1187,13.1035385 4.9227,12.6477692 C4.7247,12.1943077 4.1997,11.9854615 3.7477,12.1839231" id="icons-/-ic-info"></path>
                            </g>
                        </g>
                    </g>
                </g>
            </g>
        </g>
    </g>
</svg>