<?xml version="1.0" encoding="UTF-8" standalone="no"?>
<svg
   xmlns:dc="http://purl.org/dc/elements/1.1/"
   xmlns:cc="http://creativecommons.org/ns#"
   xmlns:rdf="http://www.w3.org/1999/02/22-rdf-syntax-ns#"
   xmlns:svg="http://www.w3.org/2000/svg"
   xmlns="http://www.w3.org/2000/svg"
   version="1.1"
   id="svg2"
   viewBox="0 0 16 16"
   height="16"
   width="16">
  <defs
     id="defs4" />
  <metadata
     id="metadata7">
    <rdf:RDF>
      <cc:Work
         rdf:about="">
        <dc:format>image/svg+xml</dc:format>
        <dc:type
           rdf:resource="http://purl.org/dc/dcmitype/StillImage" />
        <dc:title></dc:title>
      </cc:Work>
    </rdf:RDF>
  </metadata>
  <g
     transform="translate(0,-1036.3622)"
     id="layer1">
    <path
       id="path4136"
       d="m 6.5585938,1036.3622 c -2.9698698,-0.053 -5.76445364,2.1809 -6.39017339,5.0803 -0.68126903,2.7387 0.66726217,5.7975 3.12972509,7.1659 2.2469643,1.3356 5.2810259,1.1077 7.3073235,-0.5411 1.409444,1.3872 2.784742,2.8109 4.197648,4.1932 0.546818,0.4295 1.396929,-0.2047 1.141114,-0.8512 -0.379094,-0.646 -1.043672,-1.0873 -1.532234,-1.6538 -0.91199,-0.9157 -1.82153,-1.8338 -2.740122,-2.7429 1.822581,-2.1923 1.92469,-5.5891 0.231398,-7.8844 -1.202539,-1.712 -3.2491893,-2.7826 -5.3446792,-2.766 z m 0,1.5215 c 2.3702438,-0.052 4.5890742,1.801 4.9587382,4.143 0.45567,2.2915 -0.915861,4.7691 -3.1078525,5.5847 -2.1644618,0.8938 -4.8719051,0.029 -6.0981718,-1.9709 -1.34659968,-2.0218 -0.9258192,-4.9781 0.9461817,-6.5317 0.9054935,-0.7893 2.1003465,-1.2305 3.3011044,-1.2251 z"
       style="color:#000000;font-style:normal;font-variant:normal;font-weight:normal;font-stretch:normal;font-size:medium;line-height:normal;font-family:sans-serif;text-indent:0;text-align:start;text-decoration:none;text-decoration-line:none;text-decoration-style:solid;text-decoration-color:#000000;letter-spacing:normal;word-spacing:normal;text-transform:none;direction:ltr;block-progression:tb;writing-mode:lr-tb;baseline-shift:baseline;text-anchor:start;white-space:normal;clip-rule:nonzero;display:inline;overflow:visible;visibility:visible;opacity:1;isolation:auto;mix-blend-mode:normal;color-interpolation:sRGB;color-interpolation-filters:linearRGB;solid-color:#000000;solid-opacity:1;fill:#818181;fill-opacity:1;fill-rule:nonzero;stroke:none;stroke-width:1.52007389;stroke-linecap:butt;stroke-linejoin:miter;stroke-miterlimit:4;stroke-dasharray:none;stroke-dashoffset:0;stroke-opacity:1;color-rendering:auto;image-rendering:auto;shape-rendering:auto;text-rendering:auto;enable-background:accumulate" />
  </g>
</svg>
