<?xml version="1.0" encoding="UTF-8" standalone="no"?>
<svg
   xmlns:dc="http://purl.org/dc/elements/1.1/"
   xmlns:cc="http://creativecommons.org/ns#"
   xmlns:rdf="http://www.w3.org/1999/02/22-rdf-syntax-ns#"
   xmlns:svg="http://www.w3.org/2000/svg"
   xmlns="http://www.w3.org/2000/svg"
   id="svg2"
   version="1.1"
   viewBox="0 0 32 32"
   height="32"
   width="32">
  <metadata
     id="metadata22">
    <rdf:RDF>
      <cc:Work
         rdf:about="">
        <dc:format>image/svg+xml</dc:format>
        <dc:type
           rdf:resource="http://purl.org/dc/dcmitype/StillImage" />
        <dc:title>icons/ic-saving</dc:title>
      </cc:Work>
    </rdf:RDF>
  </metadata>
  <!-- Generator: Sketch 42 (36781) - http://www.bohemiancoding.com/sketch -->
  <title
     id="title4">icons/ic-saving</title>
  <desc
     id="desc6">Created with Sketch.</desc>
  <defs
     id="defs8" />
  <g
     transform="translate(0,12)"
     style="fill:none;fill-rule:evenodd;stroke:none;stroke-width:1"
     id="Style-Guide">
    <g
       style="fill:#ffffff;fill-rule:nonzero"
       transform="translate(-367,-138)"
       id="Button_States">
      <g
         style="fill:#cccccc;fill-opacity:1"
         transform="matrix(1.6,0,0,1.6,-194.6,25.2)"
         id="primary">
        <g
           style="fill:#cccccc;fill-opacity:1"
           transform="translate(325,53)"
           id="buttons/primary/loading">
          <g
             style="fill:#cccccc;fill-opacity:1"
             transform="translate(26,10)"
             id="content">
            <g
               style="fill:#cccccc;fill-opacity:1"
               id="icons/ic-saving">
              <g
                 style="fill:#cccccc;fill-opacity:1"
                 id="g16">
                <path
                   style="fill:#cccccc;fill-opacity:1"
                   id="path18"
                   d="m 4.399958,14.199616 c 0.4917056,0 0.9144998,0.175299 1.2687766,0.524979 0.3541454,0.350599 0.5311524,0.775188 0.5311524,1.2753 0,0.500155 -0.1770508,0.925489 -0.5311524,1.275344 -0.354233,0.349986 -0.777071,0.524979 -1.2687766,0.524979 -0.4999803,0 -0.9249636,-0.174993 -1.2751249,-0.524979 -0.35003,-0.350293 -0.5249793,-0.775189 -0.5249793,-1.275344 0,-0.500112 0.1750806,-0.925007 0.5249793,-1.2753 0.35003,-0.349986 0.7750132,-0.524979 1.2751249,-0.524979 z M 3.9999737,10.399853 c 0,0.549891 -0.1957453,1.020756 -0.5874549,1.412291 -0.3916659,0.391797 -0.8625755,0.58763 -1.4125538,0.58763 -0.5500221,0 -1.02084421,-0.195833 -1.41255382,-0.58763 C 0.19574535,11.420347 0,10.949744 0,10.399853 0,9.8496994 0.19578913,9.3788774 0.58741118,8.9871678 0.97912079,8.5955457 1.4499429,8.3997128 1.999965,8.3997128 c 0.5499783,0 1.0208879,0.1957891 1.4125538,0.587455 0.3917096,0.392016 0.5874549,0.8627068 0.5874549,1.4126852 z M 15.599736,5.8001217 c -0.275077,0 -0.51062,-0.097895 -0.706452,-0.293815 -0.195702,-0.1959205 -0.29364,-0.4312878 -0.29364,-0.7063645 0,-0.2750767 0.09794,-0.5103564 0.29364,-0.7061893 0.195832,-0.1957454 0.431375,-0.2938151 0.706452,-0.2938151 0.27477,0 0.510443,0.097895 0.706145,0.2938151 0.195833,0.1957891 0.293946,0.4311126 0.293946,0.7061893 0,0.2749454 -0.09811,0.510444 -0.293946,0.7063645 -0.19557,0.1957453 -0.431375,0.293815 -0.706145,0.293815 z M 4.4000893,2.6000727 c 0.6082948,0 1.1270572,0.214615 1.5561559,0.6437137 0.4290986,0.4290986 0.6437136,0.947861 0.6437136,1.5561558 0,0.6083823 -0.214615,1.1270572 -0.6437136,1.556331 C 5.5271465,6.7853718 5.0083841,7.0000744 4.4000893,7.0000744 3.7917945,7.0000744 3.2730759,6.7855032 2.8437584,6.3562732 2.4145283,5.9269994 2.2000447,5.4084559 2.2000447,4.7999422 2.2000447,4.1916474 2.4145283,3.672885 2.8437584,3.2437864 3.2729446,2.8146877 3.7916632,2.6000727 4.4000893,2.6000727 Z M 18.849607,9.549755 c 0.233616,0.2334847 0.349855,0.516924 0.349855,0.850273 0,0.333174 -0.116414,0.616701 -0.349855,0.849791 -0.23309,0.233441 -0.516573,0.349987 -0.849791,0.349987 -0.333524,0 -0.616701,-0.116546 -0.850098,-0.349987 -0.233134,-0.232828 -0.34968,-0.516617 -0.34968,-0.849791 0,-0.333524 0.116546,-0.6169196 0.34968,-0.850273 0.233266,-0.2333533 0.516574,-0.3498986 0.850098,-0.3498986 0.333218,0 0.616526,0.1165453 0.849791,0.3498986 z m -3.249871,5.050064 c 0.383259,0 0.71245,0.137341 0.987482,0.412462 0.275077,0.27512 0.412506,0.604091 0.412506,0.987658 0,0.383435 -0.137429,0.712625 -0.412506,0.987702 -0.275076,0.27477 -0.604223,0.412286 -0.987482,0.412286 -0.383523,0 -0.712713,-0.137254 -0.98779,-0.412286 -0.27477,-0.275121 -0.41233,-0.604442 -0.41233,-0.987702 0,-0.383567 0.13756,-0.712888 0.41233,-0.987658 0.275077,-0.275077 0.604223,-0.412462 0.98779,-0.412462 z m -5.5999111,2.199738 c 0.4417071,0 0.8186631,0.156561 1.1312161,0.469114 0.312554,0.312554 0.468808,0.689465 0.468808,1.131173 0,0.441708 -0.156254,0.818663 -0.468808,1.131173 C 10.818488,19.84357 10.441532,20 9.9998249,20 9.5579859,20 9.1810305,19.84357 8.8683458,19.531017 8.5557925,19.218507 8.399669,18.841552 8.399669,18.399844 c 0,-0.441708 0.1562986,-0.818619 0.4686768,-1.131173 0.3126847,-0.312553 0.6898152,-0.469114 1.1314791,-0.469114 z M 9.9998249,0 c 0.6668741,0 1.2334011,0.23335333 1.6999331,0.69988486 0.466531,0.46688174 0.699841,1.03354074 0.699841,1.70010814 0,0.666655 -0.23331,1.2334015 -0.699841,1.699933 -0.466532,0.4667067 -1.033059,0.6999287 -1.6999331,0.6999287 -0.6666988,0 -1.2334891,-0.2333534 -1.7001957,-0.6999287 C 7.8329663,3.6331756 7.5997443,3.066648 7.5997443,2.399993 c 0,-0.6666112 0.2333096,-1.2334015 0.6998849,-1.70010814 C 8.7663358,0.23322198 9.3332575,0 9.9998249,0 Z" />
              </g>
            </g>
          </g>
        </g>
      </g>
    </g>
  </g>
</svg>
