<?xml version="1.0" encoding="UTF-8" standalone="no"?>
<svg width="208px" height="226px" viewBox="0 0 208 226" version="1.1" xmlns="http://www.w3.org/2000/svg" xmlns:xlink="http://www.w3.org/1999/xlink">
    <!-- Generator: Sketch 42 (36781) - http://www.bohemiancoding.com/sketch -->
    <title>illustration-no-data</title>
    <desc>Created with Sketch.</desc>
    <defs></defs>
    <g id="UI-Design" stroke="none" stroke-width="1" fill="none" fill-rule="evenodd">
        <g id="Users_List_Empty" transform="translate(-610.000000, -365.000000)">
            <g id="content" transform="translate(200.000000, 0.000000)">
                <g id="area-content" transform="translate(30.000000, 80.000000)">
                    <g id="table" transform="translate(30.000000, 176.000000)">
                        <g id="entries" transform="translate(0.000000, 36.000000)">
                            <g id="content" transform="translate(300.000000, 37.000000)">
                                <g transform="translate(0.000000, 35.000000)" id="illustration-no-data">
                                    <g transform="translate(54.000000, 0.000000)">
                                        <circle id="background" stroke="#CCCCCC" stroke-width="8" fill="#F1F0F0" cx="100" cy="123" r="100"></circle>
                                        <g id="ic-uploaded" transform="translate(22.000000, 1.000000)">
                                            <polygon id="Path-2" fill="#FFFFFF" points="5.25 4 4 224.25 155.25 222.829032 154 53.733871 109 4"></polygon>
                                            <path d="M6.66666667,6.66666667 L103.333333,6.66666667 L103.333333,53.3333333 L150,53.3333333 L150,217.333333 L156.666667,217.333333 L156.666667,48.62 L108.046667,0 L0,0 L0,224 L156.666667,224 L156.666667,217.333333 L6.66666667,217.333333 L6.66666667,6.66666667 Z M110,11.38 L145.286667,46.6666667 L110,46.6666667 L110,11.38 Z" id="Shape" fill="#CCCCCC"></path>
                                            <g id="lines" transform="translate(25.000000, 76.000000)" fill="#CCCCCC" opacity="0.300000012">
                                                <rect id="line" x="0" y="48" width="60" height="6" rx="3"></rect>
                                                <rect id="line" x="0" y="32" width="80" height="6" rx="3"></rect>
                                                <rect id="line" x="0" y="16" width="100" height="6" rx="3"></rect>
                                                <rect id="line" x="0" y="0" width="110" height="6" rx="3"></rect>
                                            </g>
                                        </g>
                                    </g>
                                </g>
                            </g>
                        </g>
                    </g>
                </g>
            </g>
        </g>
    </g>
</svg>