<?xml version="1.0" encoding="UTF-8" standalone="no"?>
<svg width="32px" height="32px" viewBox="0 0 32 32" version="1.1" xmlns="http://www.w3.org/2000/svg" xmlns:xlink="http://www.w3.org/1999/xlink">
    <!-- Generator: Sketch 45.2 (43514) - http://www.bohemiancoding.com/sketch -->
    <title>shield/icons/ic-loading</title>
    <desc>Created with Sketch.</desc>
    <defs></defs>
    <g id="Shield-UI" stroke="none" stroke-width="1" fill="none" fill-rule="evenodd" fill-opacity="0.3">
        <g id="Users_List_Loading" transform="translate(-572.000000, -516.000000)" fill="#004C97">
            <g id="content" transform="translate(200.000000, 0.000000)">
                <g id="area-content" transform="translate(30.000000, 80.000000)">
                    <g id="table" transform="translate(30.000000, 176.000000)">
                        <g id="entries" transform="translate(0.000000, 36.000000)">
                            <g id="loading-info" transform="translate(312.500000, 224.000000)">
                                <g id="shield/icons/ic-loading">
                                    <path d="M0.645601628,1.474 C5.34040163,0.9828 10.1216016,0.4912 14.9912016,0 C19.4404016,0.448 29.5200016,1.3444 30.2192016,1.3444 C30.6308016,1.3444 30.9160016,1.62 30.8528016,1.9568 C30.7892016,2.294 30.4072016,2.5696 30.0028016,2.5696 L22.1088016,2.5696 C21.7032016,2.5696 21.3532016,2.8452 21.3304016,3.1824 C21.3076016,3.5196 21.6148016,3.7952 22.0128016,3.7952 L29.7592016,3.7952 L30.2676016,3.7952 C30.6668016,3.7952 30.9400016,4.0712 30.8748016,4.408 C30.8096016,4.7448 30.4356016,5.0208 30.0436016,5.0208 L29.5432016,5.0208 L20.5760016,5.0208 C20.1828016,5.02 19.8476016,5.2968 19.8308016,5.6332 C19.8140016,5.9704 20.1160016,6.246 20.5016016,6.246 L29.3268016,6.246 C29.7400016,6.246 30.0044016,6.5216 29.9416016,6.8592 C29.8780016,7.1956 29.5160016,7.4712 29.1364016,7.4716 L19.4564016,7.4716 C19.0760016,7.4712 18.7612016,7.7472 18.7564016,8.0844 C18.7520016,8.4216 19.0536016,8.6972 19.4272016,8.6972 L28.8948016,8.6972 L29.2376016,8.6972 C29.6120016,8.6972 29.8656016,8.9728 29.8008016,9.31 C29.7364016,9.6468 29.3828016,9.9228 29.0156016,9.9228 L28.6784016,9.9228 L20.7888016,9.9228 C20.4208016,9.9228 20.1040016,10.1988 20.0848016,10.5352 C20.0652016,10.8724 20.3452016,11.148 20.7056016,11.148 L28.4620016,11.148 L28.7748016,11.148 C29.1368016,11.1476 29.3800016,11.424 29.3156016,11.7608 C29.2508016,12.098 28.9080016,12.3736 28.5532016,12.3736 L28.2460016,12.3736 L18.1296016,12.3736 C17.7740016,12.3736 17.4764016,12.6492 17.4696016,12.9864 C17.4620016,13.3236 17.7416016,13.5992 18.0900016,13.5988 L28.0300016,13.5988 L28.3640016,13.5988 C28.7136016,13.5992 28.9468016,13.8752 28.8820016,14.2116 C28.8176016,14.5488 28.4844016,14.8248 28.1420016,14.8248 L27.8136016,14.8248 L20.8848016,14.8248 C20.5416016,14.8248 20.2432016,15.1 20.2216016,15.4376 C20.2000016,15.7748 20.4576016,16.05 20.7936016,16.05 L27.5976016,16.05 L27.7900016,16.05 C28.1276016,16.05 28.3508016,16.326 28.2868016,16.6628 C28.2224016,17 27.9004016,17.2756 27.5704016,17.2752 L27.3816016,17.2752 L18.0844016,17.2752 C17.7532016,17.2752 17.4860016,17.5512 17.4900016,17.8884 C17.4944016,18.2252 17.7620016,18.5012 18.0860016,18.5012 L27.1652016,18.5012 C27.5780016,18.5012 27.7920016,18.7764 27.7284016,19.114 C27.6648016,19.4508 27.3528016,19.7264 27.0352016,19.7264 L19.1108016,19.7264 C18.7920016,19.7268 18.5232016,20.0024 18.5136016,20.3396 C18.5040016,20.6764 18.7508016,20.952 19.0620016,20.952 L26.7332016,20.952 L27.4596016,20.952 C27.7720016,20.952 27.9732016,21.2276 27.9056016,21.5648 C27.8388016,21.902 27.5340016,22.1772 27.2292016,22.1776 L26.5068016,22.1776 L18.0692016,22.1776 C17.7628016,22.1772 17.5156016,22.4536 17.5196016,22.79 C17.5232016,23.1276 17.7716016,23.4032 18.0704016,23.4032 L26.1504016,23.4032 L26.6024016,23.4032 C26.9024016,23.4032 27.0952016,23.6788 27.0304016,24.0156 C26.9656016,24.3528 26.6728016,24.6288 26.3800016,24.6288 L25.5760016,24.6288 L19.4184016,24.6288 C19.1248016,24.6288 18.8876016,24.9044 18.8912016,25.2412 C18.8956016,25.5788 19.1332016,25.854 19.4200016,25.854 L24.7464016,25.854 L24.9088016,25.854 C25.1960016,25.8544 25.3844016,26.13 25.3276016,26.4668 C25.2700016,26.8036 24.9932016,27.08 24.7128016,27.08 L23.4920016,27.08 L18.0748016,27.08 C17.7932016,27.08 17.5664016,27.3556 17.5708016,27.6924 C17.5744016,28.0292 17.8024016,28.3048 18.0768016,28.3048 L21.6276016,28.3048 C21.8004016,28.3952 21.9432016,28.6284 21.9104016,28.918 C21.8720016,29.2548 21.6208016,29.5308 21.3528016,29.5304 L19.7620016,29.5304 L16.5540016,29.5304 C16.2848016,29.5304 16.0684016,29.8064 16.0720016,30.1436 C16.0764016,30.4804 16.2936016,30.756 16.5552016,30.756 L17.9760016,30.756 L18.3800016,30.756 C18.6428016,30.7564 18.8412016,31.0316 18.8216016,31.3688 C18.8012016,31.7056 18.5756016,31.9816 18.3204016,31.9816 L16.2700016,31.9816 L14.9216016,31.9816 C14.9216016,31.9816 14.7484016,31.9988 14.5920016,32 C14.4920016,31.9996 14.4236016,31.9944 14.3828016,31.9816 C11.9476016,31.192 9.79200163,29.292 7.62200163,27.476 C5.69400163,25.7516 4.35440163,24.2748 3.89680163,22.008 C2.60240163,15.4496 1.30840163,8.8916 0.0140016284,2.3332 C-0.0683983716,1.916 0.222001628,1.518 0.645601628,1.474 Z"></path>
                                </g>
                            </g>
                        </g>
                    </g>
                </g>
            </g>
        </g>
    </g>
</svg>