<?xml version="1.0" encoding="utf-8"?>
<svg xmlns="http://www.w3.org/2000/svg"
	xmlns:xlink="http://www.w3.org/1999/xlink"
	width="16px" height="16px" viewBox="0 0 16 16">
<path fillRule="evenodd" d="M 16.01 14.55C 16.01 14.55 14.5 16.02 14.5 16.02 14.5 16.02 7.87 9.66 7.87 9.66 7.87 9.66 1.46 16.02 1.46 16.02 1.46 16.02 0.01 14.55 0.01 14.55 0.01 14.55 6.6 8.01 6.6 8.01 6.6 8.01 0.01 1.47 0.01 1.47 0.01 1.47 1.46 0 1.46 0 1.46 0 7.87 6.36 7.87 6.36 7.87 6.36 14.5 0 14.5 0 14.5 0 16.01 1.47 16.01 1.47 16.01 1.47 9.18 8.01 9.18 8.01 9.18 8.01 16.01 14.55 16.01 14.55Z" fill="rgb(129,129,129)"/></svg>