<?xml version="1.0" encoding="UTF-8" standalone="no"?>
<svg width="15px" height="16px" viewBox="0 0 15 16" version="1.1" xmlns="http://www.w3.org/2000/svg" xmlns:xlink="http://www.w3.org/1999/xlink">
    <!-- Generator: Sketch 45.2 (43514) - http://www.bohemiancoding.com/sketch -->
    <title>icons/ic-calendar</title>
    <desc>Created with Sketch.</desc>
    <defs></defs>
    <g id="Network-Topology-States" stroke="none" stroke-width="1" fill="none" fill-rule="evenodd">
        <g id="Network_Topology_Virtual_New_UI_bar_5" transform="translate(-953.000000, -182.000000)" fill="#818181">
            <g id="side-bar" transform="translate(736.000000, 0.000000)">
                <g id="select" transform="translate(25.000000, 170.000000)">
                    <path d="M204.401569,13.7331468 L203.919554,13.7331468 L203.919554,13.2072324 C203.919554,12.5412791 203.394079,12 202.747441,12 C202.100365,12 201.575329,12.5412791 201.575329,13.2072324 L201.575329,13.7327078 L200.372486,13.7327078 L200.372486,13.2072324 C200.372486,12.5412791 199.847011,12 199.200373,12 C198.553736,12 198.02826,12.5412791 198.02826,13.2072324 L198.02826,13.7327078 L196.825418,13.7327078 L196.825418,13.2072324 C196.825418,12.5412791 196.299942,12 195.653305,12 C195.006667,12 194.481192,12.5412791 194.481192,13.2072324 L194.481192,13.7327078 L193.865723,13.7327078 C192.837161,13.7327078 192,14.5698686 192,15.5984306 L192,26.1342772 C192,27.1628392 192.837161,28 193.865723,28 L204.401569,28 C205.43057,28 206.267292,27.1628392 206.267292,26.1342772 L206.267292,15.5984306 C206.267292,14.5703076 205.430131,13.7331468 204.401569,13.7331468 Z M205.169808,26.1347162 C205.169808,26.558345 204.825198,26.902955 204.401569,26.902955 L193.865723,26.902955 C193.442094,26.902955 193.097484,26.558345 193.097484,26.1347162 L193.097484,16.4768568 L205.169808,16.4768568 L205.169808,26.1347162 Z M202.233819,13.2072324 C202.233819,12.9047658 202.464291,12.6584904 202.747441,12.6584904 C203.031031,12.6584904 203.261064,12.9047658 203.261064,13.2072324 L203.261064,15.3565451 C203.261064,15.6590117 203.031031,15.9052871 202.747441,15.9052871 C202.464291,15.9052871 202.233819,15.6590117 202.233819,15.3565451 L202.233819,13.2072324 Z M199.200373,12.6584904 C199.483524,12.6584904 199.713996,12.9047658 199.713996,13.2072324 L199.713996,15.3565451 C199.713996,15.6590117 199.483524,15.9052871 199.200373,15.9052871 C198.917222,15.9052871 198.686751,15.6590117 198.686751,15.3565451 L198.686751,13.2072324 C198.686751,12.9047658 198.917222,12.6584904 199.200373,12.6584904 Z M195.139243,13.2072324 C195.139243,12.9047658 195.369715,12.6584904 195.652866,12.6584904 C195.936017,12.6584904 196.166488,12.9047658 196.166488,13.2072324 L196.166488,15.3565451 C196.166488,15.6590117 195.936017,15.9052871 195.652866,15.9052871 C195.369715,15.9052871 195.139243,15.6590117 195.139243,15.3565451 L195.139243,13.2072324 Z M194.08522,18.4207205 L196.102395,18.4207205 L196.102395,20.2157654 L194.08522,20.2157654 L194.08522,18.4207205 Z M196.777567,18.4207205 L198.795182,18.4207205 L198.795182,20.2157654 L196.777567,20.2157654 L196.777567,18.4207205 Z M199.47211,18.4207205 L201.489286,18.4207205 L201.489286,20.2157654 L199.47211,20.2157654 L199.47211,18.4207205 Z M202.164458,18.4207205 L204.182073,18.4207205 L204.182073,20.2157654 L202.164458,20.2157654 L202.164458,18.4207205 Z M194.08522,20.8167476 L196.102395,20.8167476 L196.102395,22.6104755 L194.08522,22.6104755 L194.08522,20.8167476 Z M196.777567,20.8167476 L198.795182,20.8167476 L198.795182,22.6104755 L196.777567,22.6104755 L196.777567,20.8167476 Z M199.47211,20.8167476 L201.489286,20.8167476 L201.489286,22.6104755 L199.47211,22.6104755 L199.47211,20.8167476 Z M202.164458,20.8167476 L204.182073,20.8167476 L204.182073,22.6104755 L202.164458,22.6104755 L202.164458,20.8167476 Z M194.08522,23.2118967 L196.102395,23.2118967 L196.102395,25.0056246 L194.08522,25.0056246 L194.08522,23.2118967 Z M196.777567,23.2118967 L198.795182,23.2118967 L198.795182,25.0056246 L196.777567,25.0056246 L196.777567,23.2118967 Z M199.47211,23.2118967 L201.489286,23.2118967 L201.489286,25.0056246 L199.47211,25.0056246 L199.47211,23.2118967 Z M202.164458,23.2118967 L204.182073,23.2118967 L204.182073,25.0056246 L202.164458,25.0056246 L202.164458,23.2118967 Z" id="icons/ic-calendar"></path>
                </g>
            </g>
        </g>
    </g>
</svg>