<?xml version="1.0" encoding="utf-8"?>
<svg xmlns="http://www.w3.org/2000/svg"
	xmlns:xlink="http://www.w3.org/1999/xlink"
	width="5px" height="12px" viewBox="0 0 5 12">
<path fillRule="evenodd" d="M 3.76 9.57C 3.76 9.57 2.82 9.92 2.82 9.92 2.82 9.92 4.04 4.51 4.04 4.51 4.11 4.22 3.97 3.91 3.69 3.73 3.4 3.55 3.03 3.54 2.73 3.68 2.73 3.68 0.46 4.8 0.46 4.8 0.03 5.01-0.12 5.48 0.12 5.86 0.37 6.23 0.91 6.36 1.34 6.15 1.34 6.15 1.91 5.87 1.91 5.87 1.91 5.87 0.74 11.08 0.74 11.08 0.67 11.36 0.8 11.66 1.05 11.84 1.22 11.95 1.41 12.01 1.61 12.01 1.73 12.01 1.86 11.99 1.97 11.94 1.97 11.94 4.47 10.99 4.47 10.99 4.92 10.82 5.13 10.36 4.93 9.97 4.73 9.58 4.21 9.4 3.76 9.57 3.76 9.57 3.76 9.57 3.76 9.57ZM 3.16 2.23C 3.5 2.23 3.83 2.11 4.06 1.91 4.3 1.7 4.44 1.41 4.44 1.12 4.44 0.83 4.3 0.54 4.06 0.33 3.83 0.13 3.5 0.01 3.16 0.01 2.83 0.01 2.5 0.13 2.26 0.33 2.03 0.54 1.89 0.83 1.89 1.12 1.89 1.41 2.03 1.7 2.26 1.91 2.5 2.11 2.83 2.23 3.16 2.23Z" fill="rgb(255,255,255)"/></svg>