<?xml version="1.0" encoding="UTF-8" standalone="no"?>
<svg
   xmlns:dc="http://purl.org/dc/elements/1.1/"
   xmlns:cc="http://creativecommons.org/ns#"
   xmlns:rdf="http://www.w3.org/1999/02/22-rdf-syntax-ns#"
   xmlns:svg="http://www.w3.org/2000/svg"
   xmlns="http://www.w3.org/2000/svg"
   version="1.1"
   id="svg2"
   viewBox="0 0 14 14"
   height="14"
   width="14">
  <defs
     id="defs4" />
  <metadata
     id="metadata7">
    <rdf:RDF>
      <cc:Work
         rdf:about="">
        <dc:format>image/svg+xml</dc:format>
        <dc:type
           rdf:resource="http://purl.org/dc/dcmitype/StillImage" />
        <dc:title></dc:title>
      </cc:Work>
    </rdf:RDF>
  </metadata>
  <g
     id="layer2">
    <path
       id="path4145"
       d="m 13.410156,2.4189542 a 0.30495128,0.30495128 0 0 0 -0.265625,0.1621093 l -1.703125,3.0664063 a 0.828125,0.828125 0 0 0 -0.472656,-0.1484375 0.828125,0.828125 0 0 0 -0.691406,0.375 L 8.5683592,5.1123135 A 0.828125,0.828125 0 0 0 7.7499998,4.4052823 0.828125,0.828125 0 0 0 6.9218748,5.2334073 0.828125,0.828125 0 0 0 6.9746092,5.5244229 L 5.7148436,7.0420011 A 0.828125,0.828125 0 0 0 5.3124998,6.9365323 0.828125,0.828125 0 0 0 4.6953123,7.2138761 L 3.9980467,6.7607511 a 0.828125,0.828125 0 0 0 0.00195,-0.042969 0.828125,0.828125 0 0 0 -0.828125,-0.828125 0.828125,0.828125 0 0 0 -0.8261719,0.7832031 L 0.37499981,9.3388761 A 0.30495128,0.30495128 0 1 0 0.86523419,9.7002042 L 2.6171873,7.3310635 A 0.828125,0.828125 0 0 0 3.1718748,7.5459073 0.828125,0.828125 0 0 0 3.738281,7.3193448 l 0.7480469,0.484375 A 0.828125,0.828125 0 0 0 5.3124998,8.5927823 0.828125,0.828125 0 0 0 6.1406248,7.7646573 0.828125,0.828125 0 0 0 6.1054686,7.5263761 L 7.3906248,5.9775479 a 0.828125,0.828125 0 0 0 0.359375,0.083984 0.828125,0.828125 0 0 0 0.6738281,-0.3476562 L 10.15625,6.4873135 a 0.828125,0.828125 0 0 0 0.8125,0.6679688 0.828125,0.828125 0 0 0 0.828125,-0.828125 0.828125,0.828125 0 0 0 -0.002,-0.058594 L 13.677734,2.8759854 A 0.30495128,0.30495128 0 0 0 13.410156,2.4189542 Z M 0.63085919,10.635751 a 0.472656,0.472656 0 1 0 0,0.945312 l 12.73828181,0 a 0.472656,0.472656 0 0 0 0,-0.945312 l -12.73828181,0 z"
       style="color:#000000;font-style:normal;font-variant:normal;font-weight:normal;font-stretch:normal;font-size:medium;line-height:normal;font-family:sans-serif;text-indent:0;text-align:start;text-decoration:none;text-decoration-line:none;text-decoration-style:solid;text-decoration-color:#000000;letter-spacing:normal;word-spacing:normal;text-transform:none;direction:ltr;block-progression:tb;writing-mode:lr-tb;baseline-shift:baseline;text-anchor:start;white-space:normal;clip-rule:nonzero;display:inline;overflow:visible;visibility:visible;opacity:1;isolation:auto;mix-blend-mode:normal;color-interpolation:sRGB;color-interpolation-filters:linearRGB;solid-color:#000000;solid-opacity:1;fill:#ffffff;fill-opacity:1;fill-rule:evenodd;stroke:none;stroke-width:0.94339806px;stroke-linecap:round;stroke-linejoin:miter;stroke-miterlimit:4;stroke-dasharray:none;stroke-dashoffset:0;stroke-opacity:1;color-rendering:auto;image-rendering:auto;shape-rendering:auto;text-rendering:auto;enable-background:accumulate" />
  </g>
</svg>
