<?xml version="1.0" encoding="UTF-8" standalone="no"?>
<svg width="14px" height="14px" viewBox="0 0 14 14" version="1.1" xmlns="http://www.w3.org/2000/svg" xmlns:xlink="http://www.w3.org/1999/xlink">
    <!-- Generator: Sketch 45.2 (43514) - http://www.bohemiancoding.com/sketch -->
    <title>icons/ic-move</title>
    <desc>Created with Sketch.</desc>
    <defs></defs>
    <g id="Network-Topology-States" stroke="none" stroke-width="1" fill="none" fill-rule="evenodd">
        <g id="Network_Topology_Virtual_Full-Example" transform="translate(-873.000000, -348.000000)" fill="#FFFFFF">
            <g id="content" transform="translate(200.000000, 0.000000)">
                <g id="area-content" transform="translate(30.000000, 80.000000)">
                    <g id="actions" transform="translate(637.000000, 241.000000)">
                        <g transform="translate(0.000000, 21.000000)" id="icons/ic-move">
                            <g transform="translate(6.000000, 6.000000)">
                                <path d="M13.8514699,6.64836297 L11.8514582,4.6483786 C11.7525658,4.54940416 11.6353398,4.49995798 11.4998896,4.49995798 C11.3644941,4.49995798 11.2473501,4.54940416 11.1483483,4.6483786 C11.0494833,4.74740778 10.9999277,4.86460644 10.9999277,5.00000195 L10.9999277,6.00006255 L7.99991009,6.00006255 L7.99991009,3.00004495 L9.00002541,3.00004495 C9.13542092,3.00004495 9.25264695,2.95054405 9.35156667,2.85162433 C9.45045903,2.75264988 9.4999052,2.63556067 9.4999052,2.50008307 C9.4999052,2.3645781 9.45045903,2.24737944 9.35156667,2.14843235 L7.35152758,0.148420627 C7.25266258,0.0494735422 7.13549129,0 6.99998632,0 C6.86448135,0 6.74736478,0.0495009059 6.64836297,0.148420627 L4.64840597,2.14843235 C4.54940416,2.24746153 4.49998534,2.36466019 4.49998534,2.50008307 C4.49998534,2.63542385 4.54943152,2.75262252 4.64840597,2.85162433 C4.74743514,2.95054405 4.86452435,3.00004495 5.00002932,3.00004495 L6.00003518,3.00004495 L6.00003518,6.00008991 L3.00004495,6.00008991 L3.00004495,5.00002932 C3.00004495,4.86452435 2.95054405,4.74735305 2.8515696,4.64840597 C2.75254042,4.54943152 2.63534176,4.49998534 2.49994625,4.49998534 C2.3645781,4.49998534 2.24737944,4.54943152 2.14840499,4.64840597 L0.148420627,6.64836297 C0.0495009059,6.74733742 0,6.86448135 0,6.99990423 C0,7.1353271 0.0495009059,7.25255313 0.148420627,7.35144549 L2.14840499,9.35137512 C2.24737944,9.45024012 2.36449601,9.4999873 2.49994625,9.4999873 C2.63545122,9.4999873 2.75262252,9.45026748 2.8515696,9.35137512 C2.95054405,9.25259222 3.00004495,9.13525674 3.00004495,8.99983386 L3.00004495,7.99971854 L6.00003518,7.99971854 L6.00003518,10.9997635 L5.00011141,10.9997635 C4.86460644,10.9997635 4.74740778,11.0493191 4.64846069,11.1481841 C4.54948625,11.2471586 4.50004007,11.3643025 4.50004007,11.4997254 C4.50004007,11.6351483 4.54948625,11.7523743 4.64846069,11.8514582 L6.64844506,13.8513057 C6.74752896,13.9501981 6.8646729,13.9997264 7.00009577,13.9997264 C7.13549129,13.9997264 7.25282677,13.9501981 7.35163703,13.8513057 L9.35156667,11.8514582 C9.45065057,11.7524017 9.50009675,11.6351483 9.50009675,11.4997254 C9.50009675,11.3643025 9.45065057,11.2471859 9.35156667,11.1481841 C9.25267431,11.0493191 9.13544829,10.9997635 9.00002541,10.9997635 L8.00010164,10.9997635 L8.00010164,7.99980064 L11.0000645,7.99980064 L11.0000645,9.00002541 C11.0000645,9.13542092 11.0495107,9.25264695 11.1483757,9.35156667 C11.2474596,9.45043166 11.3646856,9.50009675 11.5001085,9.50009675 C11.6353945,9.50009675 11.7525658,9.45045903 11.8516497,9.35156667 L13.8515794,7.35152758 C13.9505538,7.25255313 14,7.1353271 14,6.99990423 C14,6.86448135 13.9505538,6.74733742 13.8514699,6.64836297 Z" id="icons-/-ic-move"></path>
                            </g>
                        </g>
                    </g>
                </g>
            </g>
        </g>
    </g>
</svg>