<?xml version="1.0" encoding="utf-8"?>
<svg xmlns="http://www.w3.org/2000/svg"
	xmlns:xlink="http://www.w3.org/1999/xlink"
	width="25px" height="26px" viewBox="0 0 25 26">
<path fillRule="evenodd" d="M 16.3 13.14C 16.3 13.14 15.26 11.78 15.26 11.78 15.26 11.78 20.69 8.01 20.69 8.01 20.69 8.01 3 8 3 8 3 8 3 6 3 6 3 6 20.69 6.04 20.69 6.04 20.69 6.04 15.26 2.26 15.26 2.26 15.26 2.26 16.3 0.9 16.3 0.9 16.3 0.9 24.92 7.01 24.92 7.01 24.92 7.01 16.3 13.14 16.3 13.14ZM 10.59 15.05C 10.59 15.05 5 19 5 19 5 19 23 19 23 19 23 19 23 21 23 21 23 21 5 21 5 21 5 21 10.59 24.57 10.59 24.57 10.59 24.57 9.55 25.93 9.55 25.93 9.55 25.93 0.94 19.81 0.94 19.81 0.94 19.81 9.55 13.72 9.55 13.72 9.55 13.72 10.59 15.05 10.59 15.05Z" fill="rgb(129,129,129)"/></svg>