<?xml version="1.0" encoding="UTF-8" standalone="no"?>
<svg
   xmlns:dc="http://purl.org/dc/elements/1.1/"
   xmlns:cc="http://creativecommons.org/ns#"
   xmlns:rdf="http://www.w3.org/1999/02/22-rdf-syntax-ns#"
   xmlns:svg="http://www.w3.org/2000/svg"
   xmlns="http://www.w3.org/2000/svg"
   xmlns:sodipodi="http://sodipodi.sourceforge.net/DTD/sodipodi-0.dtd"
   xmlns:inkscape="http://www.inkscape.org/namespaces/inkscape"
   width="15px"
   height="14px"
   viewBox="0 0 15 14"
   id="svg2"
   version="1.1"
   inkscape:version="0.91 r13725"
   sodipodi:docname="ic-search.svg">
  <metadata
     id="metadata10">
    <rdf:RDF>
      <cc:Work
         rdf:about="">
        <dc:format>image/svg+xml</dc:format>
        <dc:type
           rdf:resource="http://purl.org/dc/dcmitype/StillImage" />
        <dc:title></dc:title>
      </cc:Work>
    </rdf:RDF>
  </metadata>
  <defs
     id="defs8" />
  <sodipodi:namedview
     pagecolor="#ffffff"
     bordercolor="#666666"
     borderopacity="1"
     objecttolerance="10"
     gridtolerance="10"
     guidetolerance="10"
     inkscape:pageopacity="0"
     inkscape:pageshadow="2"
     inkscape:window-width="1920"
     inkscape:window-height="1023"
     id="namedview6"
     showgrid="false"
     inkscape:zoom="16.857143"
     inkscape:cx="0.055084746"
     inkscape:cy="7"
     inkscape:window-x="0"
     inkscape:window-y="24"
     inkscape:window-maximized="1"
     inkscape:current-layer="svg2" />
  <path
     fillRule="evenodd"
     d="m 11.39,8.53 c 1.33,-2.17 1.06,-5.04 -0.81,-6.92 -2.2,-2.2 -5.77,-2.2 -7.97,0 -2.2,2.2 -2.2,5.77 0,7.97 1.87,1.87 4.75,2.14 6.92,0.81 l 3.21,3.22 c 0.52,0.52 1.36,0.52 1.87,0 0.52,-0.51 0.52,-1.35 0,-1.87 z M 9.41,8.42 c -1.55,1.55 -4.08,1.55 -5.63,0 -1.56,-1.56 -1.56,-4.09 0,-5.64 1.55,-1.56 4.08,-1.56 5.63,0 1.56,1.55 1.56,4.08 0,5.64 z"
     id="path4"
     inkscape:connector-curvature="0"
     style="fill:#1a1a1a"
     sodipodi:nodetypes="ccsscccccssccs" />
</svg>
