<?xml version="1.0" encoding="UTF-8" standalone="no"?>
<svg width="20px" height="20px" viewBox="0 0 20 20" version="1.1" xmlns="http://www.w3.org/2000/svg" xmlns:xlink="http://www.w3.org/1999/xlink">
    <!-- Generator: Sketch 42 (36781) - http://www.bohemiancoding.com/sketch -->
    <title>icons/ic-saving</title>
    <desc>Created with Sketch.</desc>
    <defs></defs>
    <g id="Style-Guide" stroke="none" stroke-width="1" fill="none" fill-rule="evenodd">
        <g id="Button_States" transform="translate(-367.000000, -138.000000)" fill-rule="nonzero" fill="#FFFFFF">
            <g id="primary" transform="translate(16.000000, 75.000000)">
                <g id="buttons/primary/loading" transform="translate(325.000000, 53.000000)">
                    <g id="content" transform="translate(26.000000, 10.000000)">
                        <g id="icons/ic-saving">
                            <g>
                                <path d="M4.39995797,14.1996156 C4.89166364,14.1996156 5.31445784,14.3749152 5.66873459,14.7245949 C6.02288001,15.0751941 6.19988704,15.4997833 6.19988704,15.9998949 C6.19988704,16.5000503 6.02283623,16.9253839 5.66873459,17.2752387 C5.31450162,17.6252249 4.89166364,17.800218 4.39995797,17.800218 C3.89997767,17.800218 3.47499442,17.6252249 3.12483308,17.2752387 C2.77480309,16.924946 2.59985377,16.5000503 2.59985377,15.9998949 C2.59985377,15.4997833 2.77493444,15.0748876 3.12483308,14.7245949 C3.47486307,14.3746087 3.89984633,14.1996156 4.39995797,14.1996156 Z M3.99997373,10.3998529 C3.99997373,10.9497437 3.80422838,11.4206095 3.41251877,11.812144 C3.02085294,12.2039412 2.5499433,12.3997741 1.99996498,12.3997741 C1.44994287,12.3997741 0.979120788,12.2039412 0.587411179,11.812144 C0.195745352,11.4203468 0,10.9497437 0,10.3998529 C0,9.84969944 0.195789133,9.37887736 0.587411179,8.98716776 C0.979120788,8.59554571 1.44994287,8.3997128 1.99996498,8.3997128 C2.5499433,8.3997128 3.02085294,8.59550193 3.41251877,8.98716776 C3.80422838,9.37918383 3.99997373,9.84987457 3.99997373,10.3998529 Z M15.5997356,5.80012171 C15.3246588,5.80012171 15.0891165,5.70222715 14.8932835,5.50630667 C14.697582,5.31038619 14.5996436,5.07501894 14.5996436,4.79994221 C14.5996436,4.52486548 14.697582,4.28958579 14.8932835,4.09375287 C15.0891165,3.89800752 15.3246588,3.79993783 15.5997356,3.79993783 C15.8745058,3.79993783 16.1101795,3.8978324 16.3058811,4.09375287 C16.501714,4.28954201 16.5998275,4.52486548 16.5998275,4.79994221 C16.5998275,5.07488759 16.501714,5.31038619 16.3058811,5.50630667 C16.1103109,5.70205202 15.8745058,5.80012171 15.5997356,5.80012171 Z M4.40008931,2.60007268 C5.00838408,2.60007268 5.52714648,2.81468769 5.95624516,3.24378637 C6.38534383,3.67288504 6.59995885,4.19164744 6.59995885,4.79994221 C6.59995885,5.40832454 6.38534383,5.92699937 5.95624516,6.35627318 C5.52714648,6.78537185 5.00838408,7.00007443 4.40008931,7.00007443 C3.79179454,7.00007443 3.27307593,6.7855032 2.84375835,6.35627318 C2.41452832,5.92699937 2.20004466,5.40845588 2.20004466,4.79994221 C2.20004466,4.19164744 2.41452832,3.67288504 2.84375835,3.24378637 C3.27294459,2.81468769 3.7916632,2.60007268 4.40008931,2.60007268 Z M18.8496075,9.54975504 C19.0832235,9.78323971 19.1994624,10.0666786 19.1994624,10.400028 C19.1994624,10.7332023 19.0830484,11.0167288 18.8496075,11.2498194 C18.6165169,11.4832603 18.3330342,11.5998056 17.9998161,11.5998056 C17.6662916,11.5998056 17.3831154,11.4832603 17.1497183,11.2498194 C16.9165838,11.0169914 16.8000385,10.7332023 16.8000385,10.400028 C16.8000385,10.0665035 16.9165838,9.78310837 17.1497183,9.54975504 C17.382984,9.31640172 17.6662916,9.1998564 17.9998161,9.1998564 C18.3330342,9.1998564 18.6163417,9.31640172 18.8496075,9.54975504 Z M15.5997356,14.5998187 C15.9829954,14.5998187 16.3121856,14.7371601 16.5872185,15.0122806 C16.8622953,15.2874011 16.9997242,15.6163724 16.9997242,15.9999387 C16.9997242,16.3833737 16.8622953,16.7125639 16.5872185,16.9876406 C16.3121418,17.2624109 15.9829954,17.3999273 15.5997356,17.3999273 C15.216213,17.3999273 14.8870228,17.2626735 14.6119461,16.9876406 C14.3371759,16.7125201 14.1996156,16.3831986 14.1996156,15.9999387 C14.1996156,15.6163724 14.3371759,15.2870509 14.6119461,15.0122806 C14.8870228,14.7372039 15.2161692,14.5998187 15.5997356,14.5998187 Z M9.99982488,16.7995569 C10.4415325,16.7995569 10.8184879,16.9561182 11.1310412,17.2686715 C11.4435946,17.5812249 11.5998494,17.9581365 11.5998494,18.3998441 C11.5998494,18.8415518 11.4435946,19.2185072 11.1310412,19.5310167 C10.8184879,19.8435701 10.4415325,20 9.99982488,20 C9.55798589,20 9.18103052,19.8435701 8.86834582,19.5310167 C8.55579246,19.2185072 8.39966901,18.8415518 8.39966901,18.3998441 C8.39966901,17.9581365 8.55596758,17.5812249 8.86834582,17.2686715 C9.18103052,16.9561182 9.55816102,16.7995569 9.99982488,16.7995569 Z M9.99982488,0 C10.6666988,0 11.2332264,0.233353327 11.6997579,0.699884856 C12.1662894,1.16676663 12.399599,1.73342557 12.399599,2.399993 C12.399599,3.06664799 12.1662894,3.63339448 11.6997579,4.09992601 C11.2332264,4.56663266 10.6666988,4.79985465 9.99982488,4.79985465 C9.3331261,4.79985465 8.76633583,4.56650132 8.29962917,4.09992601 C7.8329663,3.63317558 7.59974432,3.06664799 7.59974432,2.399993 C7.59974432,1.73338178 7.83305386,1.16659151 8.29962917,0.699884856 C8.76633583,0.233221983 9.33325745,0 9.99982488,0 Z"></path>
                            </g>
                        </g>
                    </g>
                </g>
            </g>
        </g>
    </g>
</svg>