<?xml version="1.0" encoding="utf-8"?>
<svg xmlns="http://www.w3.org/2000/svg"
	xmlns:xlink="http://www.w3.org/1999/xlink"
	width="15px" height="14px" viewBox="0 0 15 14">
<path fillRule="evenodd" d="M 11.39 8.53C 12.72 6.36 12.45 3.49 10.58 1.61 8.38-0.59 4.81-0.59 2.61 1.61 0.41 3.81 0.41 7.38 2.61 9.58 4.48 11.45 7.36 11.72 9.53 10.39 9.53 10.39 12.74 13.61 12.74 13.61 13.26 14.13 14.1 14.13 14.61 13.61 15.13 13.1 15.13 12.26 14.61 11.74 14.61 11.74 11.39 8.53 11.39 8.53ZM 9.41 8.42C 7.86 9.97 5.33 9.97 3.78 8.42 2.22 6.86 2.22 4.33 3.78 2.78 5.33 1.22 7.86 1.22 9.41 2.78 10.97 4.33 10.97 6.86 9.41 8.42ZM 8.95 4.88C 8.95 4.88 9 6 9 6 9 6 4 6 4 6 4 6 4 5 4 5 4 5 8.95 4.88 8.95 4.88Z" fill="rgb(255,255,255)"/></svg>