<?xml version="1.0" encoding="UTF-8" standalone="no"?>
<svg width="157px" height="36px" viewBox="0 0 157 36" version="1.1" xmlns="http://www.w3.org/2000/svg" xmlns:xlink="http://www.w3.org/1999/xlink">
    <!-- Generator: Sketch 45.2 (43514) - http://www.bohemiancoding.com/sketch -->
    <title>shield/logo/shield-logo</title>
    <desc>Created with Sketch.</desc>
    <defs>
        <linearGradient x1="-1.11022302e-14%" y1="50%" x2="100%" y2="50%" id="linearGradient-1">
            <stop stop-color="#00B5E2" offset="0%"></stop>
            <stop stop-color="#004C97" offset="100%"></stop>
        </linearGradient>
        <polygon id="path-2" points="0 36 155.84985 36 155.84985 0 0 0"></polygon>
    </defs>
    <g id="Shield-UI" stroke="none" stroke-width="1" fill="none" fill-rule="evenodd">
        <g id="Users_List_Loading" transform="translate(-21.000000, -22.000000)">
            <g id="shield/sidebar">
                <g id="area-logo">
                    <g id="shield/logo/shield-logo" transform="translate(21.925000, 22.000000)">
                        <g id="Group-3" fill="url(#linearGradient-1)">
                            <path d="M0.7263,1.65825 C6.00795,1.10565 11.3868,0.5526 16.8651,0 C21.87045,0.504 33.21,1.51245 33.9966,1.51245 C34.45965,1.51245 34.7805,1.8225 34.7094,2.2014 C34.63785,2.58075 34.2081,2.8908 33.75315,2.8908 L24.8724,2.8908 C24.4161,2.8908 24.02235,3.20085 23.9967,3.5802 C23.97105,3.95955 24.31665,4.2696 24.7644,4.2696 L33.4791,4.2696 L34.05105,4.2696 C34.50015,4.2696 34.8075,4.5801 34.73415,4.959 C34.6608,5.3379 34.24005,5.6484 33.79905,5.6484 L33.2361,5.6484 L23.148,5.6484 C22.70565,5.6475 22.32855,5.9589 22.30965,6.33735 C22.29075,6.7167 22.6305,7.02675 23.0643,7.02675 L32.99265,7.02675 C33.4575,7.02675 33.75495,7.3368 33.6843,7.7166 C33.61275,8.09505 33.2055,8.4051 32.77845,8.40555 L21.88845,8.40555 C21.4605,8.4051 21.10635,8.7156 21.10095,9.09495 C21.096,9.4743 21.4353,9.78435 21.8556,9.78435 L32.50665,9.78435 L32.8923,9.78435 C33.3135,9.78435 33.5988,10.0944 33.5259,10.47375 C33.45345,10.85265 33.05565,11.16315 32.64255,11.16315 L32.2632,11.16315 L23.3874,11.16315 C22.9734,11.16315 22.617,11.47365 22.5954,11.8521 C22.57335,12.23145 22.88835,12.5415 23.2938,12.5415 L32.01975,12.5415 L32.37165,12.5415 C32.7789,12.54105 33.0525,12.852 32.98005,13.2309 C32.90715,13.61025 32.5215,13.9203 32.12235,13.9203 L31.77675,13.9203 L20.3958,13.9203 C19.99575,13.9203 19.66095,14.23035 19.6533,14.6097 C19.64475,14.98905 19.9593,15.2991 20.35125,15.29865 L31.53375,15.29865 L31.9095,15.29865 C32.3028,15.2991 32.56515,15.6096 32.49225,15.98805 C32.4198,16.3674 32.04495,16.6779 31.65975,16.6779 L31.2903,16.6779 L23.4954,16.6779 C23.1093,16.6779 22.7736,16.9875 22.7493,17.3673 C22.725,17.74665 23.0148,18.05625 23.3928,18.05625 L31.0473,18.05625 L31.26375,18.05625 C31.64355,18.05625 31.89465,18.36675 31.82265,18.74565 C31.7502,19.125 31.38795,19.43505 31.0167,19.4346 L30.8043,19.4346 L20.34495,19.4346 C19.97235,19.4346 19.67175,19.7451 19.67625,20.12445 C19.6812,20.50335 19.98225,20.81385 20.34675,20.81385 L30.56085,20.81385 C31.02525,20.81385 31.266,21.12345 31.19445,21.50325 C31.1229,21.88215 30.7719,22.1922 30.4146,22.1922 L21.49965,22.1922 C21.141,22.19265 20.8386,22.5027 20.8278,22.88205 C20.817,23.26095 21.09465,23.571 21.44475,23.571 L30.07485,23.571 L30.89205,23.571 C31.2435,23.571 31.46985,23.88105 31.3938,24.2604 C31.31865,24.63975 30.97575,24.94935 30.63285,24.9498 L29.82015,24.9498 L20.32785,24.9498 C19.98315,24.94935 19.70505,25.2603 19.70955,25.63875 C19.7136,26.01855 19.99305,26.3286 20.3292,26.3286 L29.4192,26.3286 L29.9277,26.3286 C30.2652,26.3286 30.4821,26.63865 30.4092,27.01755 C30.3363,27.3969 30.0069,27.7074 29.6775,27.7074 L28.773,27.7074 L21.8457,27.7074 C21.5154,27.7074 21.24855,28.01745 21.2526,28.39635 C21.25755,28.77615 21.52485,29.08575 21.8475,29.08575 L27.8397,29.08575 L28.0224,29.08575 C28.3455,29.0862 28.55745,29.39625 28.49355,29.77515 C28.42875,30.15405 28.11735,30.465 27.8019,30.465 L26.4285,30.465 L20.33415,30.465 C20.01735,30.465 19.7622,30.77505 19.76715,31.15395 C19.7712,31.53285 20.0277,31.8429 20.3364,31.8429 L24.33105,31.8429 C24.52545,31.9446 24.6861,32.20695 24.6492,32.53275 C24.606,32.91165 24.3234,33.22215 24.0219,33.2217 L22.23225,33.2217 L18.62325,33.2217 C18.3204,33.2217 18.07695,33.5322 18.081,33.91155 C18.08595,34.29045 18.3303,34.6005 18.6246,34.6005 L20.223,34.6005 L20.6775,34.6005 C20.97315,34.60095 21.19635,34.91055 21.1743,35.2899 C21.15135,35.6688 20.89755,35.9793 20.61045,35.9793 L18.30375,35.9793 L16.7868,35.9793 C16.7868,35.9793 16.59195,35.99865 16.416,36 C16.3035,35.99955 16.22655,35.9937 16.18065,35.9793 C13.44105,35.091 11.016,32.9535 8.57475,30.9105 C6.40575,28.97055 4.8987,27.30915 4.3839,24.759 C2.9277,17.3808 1.47195,10.00305 0.01575,2.62485 C-0.07695,2.1555 0.24975,1.70775 0.7263,1.65825 Z" id="Clip-2"></path>
                        </g>
                        <g id="Group-13">
                            <path d="M58.38228,9.121725 C59.26968,9.121725 60.02478,9.434475 60.64983,10.058625 C61.27443,10.683225 61.58673,11.439225 61.58673,12.326625 L61.58673,13.361625 L58.92453,13.361625 L58.92453,12.326625 C58.92453,12.178125 58.87098,12.051675 58.76433,11.944125 C58.65723,11.837925 58.53033,11.783925 58.38228,11.783925 L47.04408,11.783925 C46.89603,11.783925 46.76823,11.837925 46.66203,11.944125 C46.55493,12.051675 46.50183,12.178125 46.50183,12.326625 L46.50183,16.121925 C46.50183,16.269975 46.55493,16.397325 46.66203,16.504425 C46.76823,16.611075 46.89603,16.664175 47.04408,16.664175 L58.38228,16.664175 C59.26968,16.664175 60.02478,16.976925 60.64983,17.601075 C61.27443,18.225675 61.58673,18.981225 61.58673,19.868625 L61.58673,23.664375 C61.58673,24.551775 61.27443,25.308225 60.64983,25.931925 C60.02478,26.556975 59.26968,26.868825 58.38228,26.868825 L47.04408,26.868825 C46.15668,26.868825 45.40023,26.556975 44.77653,25.931925 C44.15148,25.308225 43.83963,24.551775 43.83963,23.664375 L43.83963,22.629825 L46.50183,22.629825 L46.50183,23.664375 C46.50183,23.812425 46.55493,23.940225 46.66203,24.046425 C46.76823,24.153525 46.89603,24.207075 47.04408,24.207075 L58.38228,24.207075 C58.53033,24.207075 58.65723,24.153525 58.76433,24.046425 C58.87098,23.940225 58.92453,23.812425 58.92453,23.664375 L58.92453,19.868625 C58.92453,19.720575 58.87098,19.593675 58.76433,19.486575 C58.65723,19.379925 58.53033,19.326375 58.38228,19.326375 L47.04408,19.326375 C46.15668,19.326375 45.40023,19.014075 44.77653,18.389925 C44.15148,17.765325 43.83963,17.009325 43.83963,16.121925 L43.83963,12.326625 C43.83963,11.439225 44.15148,10.683225 44.77653,10.058625 C45.40023,9.434475 46.15668,9.121725 47.04408,9.121725 L58.38228,9.121725 Z" id="Fill-4" fill="#525559"></path>
                            <polygon id="Fill-6" fill="#525559" points="81.370485 16.63155 68.661135 16.63155 68.661135 9.00945 66.026385 9.00945 66.026385 26.94375 68.661135 26.94375 68.661135 19.32165 81.370485 19.32165 81.370485 26.94375 84.005235 26.94375 84.005235 9.00945 81.370485 9.00945"></polygon>
                            <mask id="mask-3" fill="white">
                                <use xlink:href="#path-2"></use>
                            </mask>
                            <g id="Clip-9"></g>
                            <polygon id="Fill-8" fill="#525559" mask="url(#mask-3)" points="88.5096 26.9721 91.17135 26.9721 91.17135 9.02835 88.5096 9.02835"></polygon>
                            <polygon id="Fill-10" fill="#525559" mask="url(#mask-3)" points="95.69709 26.94375 110.95434 26.94375 110.95434 24.25275 98.19369 24.25275 98.19369 19.3176 108.45774 19.3176 108.45774 16.62615 98.19369 16.62615 98.19369 11.6919 110.95434 11.6919 110.95434 9 95.69709 9"></polygon>
                            <polygon id="Fill-11" fill="#525559" mask="url(#mask-3)" points="118.079775 9.059985 115.367625 9.059985 115.367625 27.000135 133.451325 27.000135 133.451325 24.312735 118.079775 24.312735"></polygon>
                            <path d="M153.15867,23.732235 C153.15867,23.881635 153.10422,24.010335 152.99667,24.117885 C152.88777,24.226785 152.75952,24.280785 152.61012,24.280785 L141.14637,24.280785 C140.99697,24.280785 140.86827,24.226785 140.76027,24.117885 C140.65182,24.010335 140.59782,23.881635 140.59782,23.732235 L140.59782,12.268035 C140.59782,12.118635 140.65182,11.990385 140.76027,11.881935 C140.86827,11.774385 140.99697,11.719935 141.14637,11.719935 L152.61012,11.719935 C152.75952,11.719935 152.88777,11.774385 152.99667,11.881935 C153.10422,11.990385 153.15867,12.118635 153.15867,12.268035 L153.15867,23.732235 Z M154.90332,9.975285 C154.27152,9.344385 153.50697,9.028035 152.61012,9.028035 L137.90637,9.028035 L137.90637,26.971785 L152.61012,26.971785 C153.50697,26.971785 154.27152,26.656785 154.90332,26.024985 C155.53422,25.393635 155.84967,24.629085 155.84967,23.732235 L155.84967,12.268035 C155.84967,11.371185 155.53422,10.607085 154.90332,9.975285 L154.90332,9.975285 Z" id="Fill-12" fill="#525559" mask="url(#mask-3)"></path>
                        </g>
                    </g>
                </g>
            </g>
        </g>
    </g>
</svg>